<svg xmlns="http://www.w3.org/2000/svg" viewBox="0 0 512 512" fill="none">
  <rect width="512" height="512" rx="120" fill="#FE8A01" />
  <path
    d="M331.634 181.773C308.1 165.519 283.068 157.391 254.082 157.391C225.096 157.391 199.324 166.546 176.767 184.856C154.467 202.908 143.188 225.723 143.188 253.301C143.188 280.364 153.823 303.051 175.092 321.361C196.359 339.414 223.227 348.439 255.695 348.439C283.938 348.439 308.971 340.697 330.734 325.209L347.887 359.788C320.387 379.905 289.566 389.966 255.438 389.966C212.722 389.966 176.251 377.139 146.281 351.484C116.825 325.572 102 293.252 102 254.527C102 216.06 116.825 183.738 146.281 157.825C176.251 131.913 212.978 119 255.951 119C290.851 119 321.929 129.189 349.172 149.569L331.634 181.773Z"
    fill="#FFF4DE"
  />
</svg>
